<svg width="22" height="18" viewBox="0 0 22 18" fill="none" xmlns="http://www.w3.org/2000/svg">
<path d="M19.4615 0.538452H5.30769C4.33019 0.538452 3.53846 1.33018 3.53846 2.30768V12.9231C3.53846 13.9006 4.33019 14.6923 5.30769 14.6923H19.4615C20.439 14.6923 21.2308 13.9006 21.2308 12.9231V2.30768C21.2308 1.33018 20.439 0.538452 19.4615 0.538452ZM10.6154 4.07691C11.1037 4.07691 11.5 4.47322 11.5 4.96153C11.5 5.44984 11.1037 5.84614 10.6154 5.84614C10.1271 5.84614 9.73077 5.44984 9.73077 4.96153C9.73077 4.47322 10.1271 4.07691 10.6154 4.07691ZM18.5769 12.0385H6.19231L9.28757 8.05857L11.5 10.7204L14.5962 6.73164L18.5769 12.0385Z" fill="#107582"/>
<path d="M4.86539 8.88916C2.39708 8.88916 0.389233 10.897 0.389233 13.3653C0.389233 15.8336 2.39708 17.8415 4.86539 17.8415C7.33369 17.8415 9.34154 15.8336 9.34154 13.3653C9.34154 10.897 7.33369 8.88916 4.86539 8.88916ZM6.22769 13.5599H5.06V14.7276C5.06 14.8352 4.97301 14.9222 4.86539 14.9222C4.75776 14.9222 4.67077 14.8352 4.67077 14.7276V13.5599H3.50308C3.39546 13.5599 3.30846 13.4729 3.30846 13.3653C3.30846 13.2577 3.39546 13.1707 3.50308 13.1707H4.67077V12.003C4.67077 11.8954 4.75776 11.8084 4.86539 11.8084C4.97301 11.8084 5.06 11.8954 5.06 12.003V13.1707H6.22769C6.33532 13.1707 6.42231 13.2577 6.42231 13.3653C6.42231 13.4729 6.33532 13.5599 6.22769 13.5599Z" fill="#107582"/>
</svg>

