<svg width="17" height="15" viewBox="0 0 17 15" fill="none" xmlns="http://www.w3.org/2000/svg">
<path d="M2.16666 0.533325C1.46683 0.533325 0.899994 1.10016 0.899994 1.79999V3.69999V13.8333C0.900011 14.0013 0.966742 14.1624 1.08551 14.2811C1.20428 14.3999 1.36536 14.4666 1.53333 14.4667H15.4667C15.6346 14.4666 15.7957 14.3999 15.9145 14.2811C16.0332 14.1624 16.1 14.0013 16.1 13.8333V3.06666V1.79999C16.1 1.10016 15.5332 0.533325 14.8333 0.533325H2.16666ZM2.16666 3.69999H14.8333V13.2H2.16666V3.69999ZM4.06666 4.96666C3.98274 4.96547 3.89941 4.98098 3.82153 5.01227C3.74365 5.04357 3.67277 5.09003 3.613 5.14896C3.55324 5.20789 3.50578 5.2781 3.47338 5.35553C3.44099 5.43296 3.42431 5.51606 3.42431 5.59999C3.42431 5.68392 3.44099 5.76702 3.47338 5.84445C3.50578 5.92188 3.55324 5.9921 3.613 6.05103C3.67277 6.10995 3.74365 6.15642 3.82153 6.18771C3.89941 6.21901 3.98274 6.23451 4.06666 6.23333H12.9333C13.0173 6.23451 13.1006 6.21901 13.1785 6.18771C13.2563 6.15642 13.3272 6.10995 13.387 6.05103C13.4468 5.9921 13.4942 5.92188 13.5266 5.84445C13.559 5.76702 13.5757 5.68392 13.5757 5.59999C13.5757 5.51606 13.559 5.43296 13.5266 5.35553C13.4942 5.2781 13.4468 5.20789 13.387 5.14896C13.3272 5.09003 13.2563 5.04357 13.1785 5.01227C13.1006 4.98098 13.0173 4.96547 12.9333 4.96666H4.06666ZM4.06666 7.49999C3.71706 7.49999 3.43333 7.78373 3.43333 8.13333V11.3C3.43333 11.6496 3.71706 11.9333 4.06666 11.9333H7.23333C7.58293 11.9333 7.86666 11.6496 7.86666 11.3V8.13333C7.86666 7.78373 7.58293 7.49999 7.23333 7.49999H4.06666ZM9.76666 7.49999C9.41706 7.49999 9.13333 7.78373 9.13333 8.13333V11.3C9.13333 11.6496 9.41706 11.9333 9.76666 11.9333H12.9333C13.2829 11.9333 13.5667 11.6496 13.5667 11.3V8.13333C13.5667 7.78373 13.2829 7.49999 12.9333 7.49999H9.76666Z" fill="#107582"/>
</svg>
