<svg width="22" height="21" viewBox="0 0 22 21" fill="none" xmlns="http://www.w3.org/2000/svg">
<path d="M4.2 0.599976C2.2461 0.599976 0.599998 2.24608 0.599998 4.19998C0.599998 6.15388 2.2461 7.79998 4.2 7.79998C4.47486 7.79998 4.74085 7.76121 4.9998 7.69978L7.8 10.5L4.9998 13.3002C4.74085 13.2387 4.47486 13.2 4.2 13.2C2.2461 13.2 0.599998 14.8461 0.599998 16.8C0.599998 18.7539 2.2461 20.4 4.2 20.4C6.1539 20.4 7.8 18.7539 7.8 16.8C7.8 16.5251 7.76123 16.2591 7.6998 16.0002L10.5 13.2L15.4816 18.1816C16.3249 19.0249 17.4699 19.5 18.6633 19.5H20.6514C21.2229 19.5 21.509 18.809 21.1049 18.4049L7.6998 4.99978C7.76123 4.74082 7.8 4.47484 7.8 4.19998C7.8 2.24608 6.1539 0.599976 4.2 0.599976ZM18.6633 1.49998C17.4699 1.49998 16.3249 1.97503 15.4816 2.81833L11.7727 6.52732L14.4727 9.22732L21.1049 2.59509C21.509 2.19099 21.2229 1.49998 20.6514 1.49998H18.6633ZM4.2 2.39998C5.1603 2.39998 6 3.23968 6 4.19998C6 5.16028 5.1603 5.99998 4.2 5.99998C3.2397 5.99998 2.4 5.16028 2.4 4.19998C2.4 3.23968 3.2397 2.39998 4.2 2.39998ZM10.5 9.59998C10.9968 9.59998 11.4 10.0032 11.4 10.5C11.4 10.9968 10.9968 11.4 10.5 11.4C10.0032 11.4 9.6 10.9968 9.6 10.5C9.6 10.0032 10.0032 9.59998 10.5 9.59998ZM4.2 15C5.1603 15 6 15.8397 6 16.8C6 17.7603 5.1603 18.6 4.2 18.6C3.2397 18.6 2.4 17.7603 2.4 16.8C2.4 15.8397 3.2397 15 4.2 15Z" fill="white"/>
</svg>
