<svg width="19" height="19" viewBox="0 0 19 19" fill="none" xmlns="http://www.w3.org/2000/svg">
<path d="M9.48779 0.113865C9.28077 0.117099 9.0835 0.202373 8.9393 0.350955C8.7951 0.499537 8.71578 0.699278 8.71875 0.906305V12.0412L6.92737 10.2498C6.85455 10.1748 6.76742 10.1152 6.67114 10.0744C6.57486 10.0337 6.47139 10.0128 6.36686 10.0128C6.21138 10.0128 6.05945 10.0592 5.9305 10.1461C5.80155 10.233 5.70146 10.3563 5.64302 10.5004C5.58458 10.6445 5.57045 10.8027 5.60245 10.9549C5.63445 11.107 5.71111 11.2462 5.82263 11.3545L8.94763 14.4795C9.09415 14.626 9.29283 14.7082 9.5 14.7082C9.70716 14.7082 9.90585 14.626 10.0524 14.4795L13.1774 11.3545C13.2523 11.2825 13.3122 11.1963 13.3534 11.1009C13.3947 11.0055 13.4165 10.9028 13.4175 10.7989C13.4186 10.6949 13.3989 10.5918 13.3596 10.4956C13.3203 10.3993 13.2622 10.3119 13.1887 10.2384C13.1152 10.1649 13.0278 10.1068 12.9316 10.0675C12.8353 10.0283 12.7322 10.0086 12.6283 10.0096C12.5244 10.0107 12.4217 10.0325 12.3263 10.0737C12.2308 10.1149 12.1446 10.1748 12.0726 10.2498L10.2812 12.0412V0.906305C10.2827 0.801739 10.2632 0.697937 10.2239 0.601049C10.1845 0.504161 10.1261 0.41616 10.0521 0.342261C9.97814 0.268362 9.89006 0.210069 9.79312 0.170836C9.69618 0.131604 9.59236 0.112231 9.48779 0.113865ZM2.98958 5.85422C1.41678 5.85422 0.125 7.14601 0.125 8.71881V16.0105C0.125 17.5833 1.41678 18.8751 2.98958 18.8751H16.0104C17.5832 18.8751 18.875 17.5833 18.875 16.0105V8.71881C18.875 7.14601 17.5832 5.85422 16.0104 5.85422H12.8854C12.7819 5.85276 12.6791 5.87188 12.583 5.91049C12.487 5.94909 12.3995 6.00641 12.3258 6.0791C12.2521 6.15179 12.1935 6.23841 12.1536 6.33392C12.1136 6.42943 12.093 6.53194 12.093 6.63547C12.093 6.73901 12.1136 6.84151 12.1536 6.93702C12.1935 7.03254 12.2521 7.11916 12.3258 7.19185C12.3995 7.26454 12.487 7.32185 12.583 7.36046C12.6791 7.39906 12.7819 7.41819 12.8854 7.41672H16.0104C16.7387 7.41672 17.3125 7.99056 17.3125 8.71881V16.0105C17.3125 16.7387 16.7387 17.3126 16.0104 17.3126H2.98958C2.26134 17.3126 1.6875 16.7387 1.6875 16.0105V8.71881C1.6875 7.99056 2.26134 7.41672 2.98958 7.41672H6.11458C6.21811 7.41819 6.32089 7.39906 6.41696 7.36046C6.51303 7.32185 6.60047 7.26454 6.67419 7.19185C6.74792 7.11916 6.80646 7.03254 6.84642 6.93702C6.88638 6.84151 6.90696 6.73901 6.90696 6.63547C6.90696 6.53194 6.88638 6.42943 6.84642 6.33392C6.80646 6.23841 6.74792 6.15179 6.67419 6.0791C6.60047 6.00641 6.51303 5.94909 6.41696 5.91049C6.32089 5.87188 6.21811 5.85276 6.11458 5.85422H2.98958Z" fill="white"/>
</svg>
