<svg width="37" height="37" viewBox="0 0 37 37" fill="none" xmlns="http://www.w3.org/2000/svg">
<path d="M31.8321 4.12268L20.2768 12.7049L22.4137 7.64151L31.8321 4.12268Z" fill="#E2761B" stroke="#E2761B" stroke-linecap="round" stroke-linejoin="round"/>
<path d="M5.15631 4.12268L16.6186 12.7862L14.5863 7.64151L5.15631 4.12268Z" fill="#E4761B" stroke="#E4761B" stroke-linecap="round" stroke-linejoin="round"/>
<path d="M27.6745 24.0162L24.597 28.7312L31.1817 30.5429L33.0747 24.1208L27.6745 24.0162Z" fill="#E4761B" stroke="#E4761B" stroke-linecap="round" stroke-linejoin="round"/>
<path d="M3.93692 24.1208L5.81828 30.5429L12.403 28.7312L9.3255 24.0162L3.93692 24.1208Z" fill="#E4761B" stroke="#E4761B" stroke-linecap="round" stroke-linejoin="round"/>
<path d="M12.0314 16.0495L10.1965 18.8251L16.7348 19.1154L16.5025 12.0894L12.0314 16.0495Z" fill="#E4761B" stroke="#E4761B" stroke-linecap="round" stroke-linejoin="round"/>
<path d="M24.957 16.0495L20.4278 12.0081L20.2769 19.1154L26.8035 18.8251L24.957 16.0495Z" fill="#E4761B" stroke="#E4761B" stroke-linecap="round" stroke-linejoin="round"/>
<path d="M12.403 28.7313L16.3283 26.8151L12.9372 24.1672L12.403 28.7313Z" fill="#E4761B" stroke="#E4761B" stroke-linecap="round" stroke-linejoin="round"/>
<path d="M20.6601 26.8151L24.597 28.7313L24.0512 24.1672L20.6601 26.8151Z" fill="#E4761B" stroke="#E4761B" stroke-linecap="round" stroke-linejoin="round"/>
<path d="M24.597 28.7314L20.6601 26.8152L20.9736 29.3817L20.9388 30.4618L24.597 28.7314Z" fill="#D7C1B3" stroke="#D7C1B3" stroke-linecap="round" stroke-linejoin="round"/>
<path d="M12.403 28.7314L16.0612 30.4618L16.038 29.3817L16.3283 26.8152L12.403 28.7314Z" fill="#D7C1B3" stroke="#D7C1B3" stroke-linecap="round" stroke-linejoin="round"/>
<path d="M16.1193 22.4718L12.8443 21.5079L15.1554 20.451L16.1193 22.4718Z" fill="#233447" stroke="#233447" stroke-linecap="round" stroke-linejoin="round"/>
<path d="M20.8691 22.4718L21.833 20.451L24.1557 21.5079L20.8691 22.4718Z" fill="#233447" stroke="#233447" stroke-linecap="round" stroke-linejoin="round"/>
<path d="M12.403 28.7314L12.9605 24.0164L9.3255 24.1209L12.403 28.7314Z" fill="#CD6116" stroke="#CD6116" stroke-linecap="round" stroke-linejoin="round"/>
<path d="M24.0396 24.0164L24.597 28.7314L27.6745 24.1209L24.0396 24.0164Z" fill="#CD6116" stroke="#CD6116" stroke-linecap="round" stroke-linejoin="round"/>
<path d="M26.8035 18.8252L20.2769 19.1155L20.8807 22.4718L21.8447 20.4511L24.1673 21.5079L26.8035 18.8252Z" fill="#CD6116" stroke="#CD6116" stroke-linecap="round" stroke-linejoin="round"/>
<path d="M12.8443 21.5079L15.167 20.4511L16.1193 22.4718L16.7348 19.1155L10.1965 18.8252L12.8443 21.5079Z" fill="#CD6116" stroke="#CD6116" stroke-linecap="round" stroke-linejoin="round"/>
<path d="M10.1965 18.8252L12.9372 24.1673L12.8443 21.5079L10.1965 18.8252Z" fill="#E4751F" stroke="#E4751F" stroke-linecap="round" stroke-linejoin="round"/>
<path d="M24.1673 21.5079L24.0511 24.1673L26.8035 18.8252L24.1673 21.5079Z" fill="#E4751F" stroke="#E4751F" stroke-linecap="round" stroke-linejoin="round"/>
<path d="M16.7348 19.1155L16.1193 22.4717L16.8857 26.4319L17.0599 21.2175L16.7348 19.1155Z" fill="#E4751F" stroke="#E4751F" stroke-linecap="round" stroke-linejoin="round"/>
<path d="M20.2768 19.1155L19.9633 21.2059L20.1026 26.4319L20.8807 22.4717L20.2768 19.1155Z" fill="#E4751F" stroke="#E4751F" stroke-linecap="round" stroke-linejoin="round"/>
<path d="M20.8807 22.4717L20.1026 26.4319L20.6601 26.8151L24.0512 24.1673L24.1673 21.5078L20.8807 22.4717Z" fill="#F6851B" stroke="#F6851B" stroke-linecap="round" stroke-linejoin="round"/>
<path d="M12.8443 21.5078L12.9372 24.1673L16.3283 26.8151L16.8858 26.4319L16.1193 22.4717L12.8443 21.5078Z" fill="#F6851B" stroke="#F6851B" stroke-linecap="round" stroke-linejoin="round"/>
<path d="M20.9388 30.4617L20.9736 29.3817L20.6833 29.1262H16.3051L16.038 29.3817L16.0612 30.4617L12.403 28.7313L13.6805 29.7765L16.2702 31.5766H20.7181L23.3195 29.7765L24.597 28.7313L20.9388 30.4617Z" fill="#C0AD9E" stroke="#C0AD9E" stroke-linecap="round" stroke-linejoin="round"/>
<path d="M20.6601 26.8151L20.1026 26.4319H16.8857L16.3283 26.8151L16.038 29.3817L16.3051 29.1262H20.6833L20.9736 29.3817L20.6601 26.8151Z" fill="#161616" stroke="#161616" stroke-linecap="round" stroke-linejoin="round"/>
<path d="M32.3198 13.2624L33.307 8.52412L31.8321 4.12268L20.6601 12.4146L24.957 16.0495L31.0308 17.8264L32.3779 16.2586L31.7972 15.8405L32.7263 14.9927L32.0063 14.4353L32.9353 13.7269L32.3198 13.2624Z" fill="#763D16" stroke="#763D16" stroke-linecap="round" stroke-linejoin="round"/>
<path d="M3.69302 8.52412L4.68015 13.2624L4.05304 13.7269L4.9821 14.4353L4.27369 14.9927L5.20275 15.8405L4.62209 16.2586L5.95762 17.8264L12.0314 16.0495L16.3283 12.4146L5.1563 4.12268L3.69302 8.52412Z" fill="#763D16" stroke="#763D16" stroke-linecap="round" stroke-linejoin="round"/>
<path d="M31.0307 17.8264L24.957 16.0496L26.8035 18.8251L24.0511 24.1673L27.6745 24.1208H33.0747L31.0307 17.8264Z" fill="#F6851B" stroke="#F6851B" stroke-linecap="round" stroke-linejoin="round"/>
<path d="M12.0314 16.0496L5.95764 17.8264L3.93692 24.1208H9.3255L12.9372 24.1673L10.1965 18.8251L12.0314 16.0496Z" fill="#F6851B" stroke="#F6851B" stroke-linecap="round" stroke-linejoin="round"/>
<path d="M20.2768 19.1155L20.6601 12.4147L22.4253 7.6416H14.5863L16.3283 12.4147L16.7348 19.1155L16.8741 21.2292L16.8857 26.4319H20.1026L20.1259 21.2292L20.2768 19.1155Z" fill="#F6851B" stroke="#F6851B" stroke-linecap="round" stroke-linejoin="round"/>
</svg>
