<svg width="7" height="7" viewBox="0 0 7 7" fill="none" xmlns="http://www.w3.org/2000/svg">
<path d="M3.252 6.604C3.164 6.604 3.092 6.576 3.036 6.52C2.98 6.464 2.952 6.392 2.952 6.304V4.036H0.732C0.644 4.036 0.572 4.008 0.516 3.952C0.46 3.896 0.432 3.828 0.432 3.748V2.992C0.432 2.904 0.46 2.832 0.516 2.776C0.572 2.72 0.644 2.692 0.732 2.692H2.952V0.495999C2.952 0.408 2.98 0.336 3.036 0.28C3.092 0.224 3.164 0.196 3.252 0.196H4.08C4.168 0.196 4.24 0.224 4.296 0.28C4.352 0.336 4.38 0.408 4.38 0.495999V2.692H6.6C6.68 2.692 6.748 2.72 6.804 2.776C6.86 2.832 6.888 2.904 6.888 2.992V3.748C6.888 3.828 6.86 3.896 6.804 3.952C6.748 4.008 6.68 4.036 6.6 4.036H4.38V6.304C4.38 6.392 4.352 6.464 4.296 6.52C4.24 6.576 4.168 6.604 4.08 6.604H3.252Z" fill="black"/>
</svg>
