<svg width="22" height="18" viewBox="0 0 22 18" fill="none" xmlns="http://www.w3.org/2000/svg">
<path d="M14.3992 0.166626L5.89494 8.67086C5.47828 9.08648 5.25001 9.63871 5.25001 10.2273C5.25001 10.8158 5.47932 11.3701 5.89494 11.7857L10.2976 16.1884C10.7132 16.604 11.2685 16.8333 11.856 16.8333C12.4446 16.8333 12.9979 16.604 13.4124 16.1884L21.9167 7.68412V0.166626H14.3992ZM8.75342 0.471802L0.652023 8.5732C0.258273 8.96695 0.0416718 9.48889 0.0416718 10.0462C0.0416718 10.6035 0.258273 11.1254 0.652023 11.5192L6.23878 17.1079L7.71176 15.635L2.12501 10.0462L10.2264 1.94275L8.75342 0.471802ZM15.2618 2.24996H19.8333V6.82149L11.9395 14.7154H11.7706L7.36793 10.3127V10.1438L15.2618 2.24996ZM16.7083 4.33329C16.4321 4.33329 16.1671 4.44304 15.9718 4.63839C15.7764 4.83374 15.6667 5.09869 15.6667 5.37496C15.6667 5.65123 15.7764 5.91618 15.9718 6.11153C16.1671 6.30688 16.4321 6.41663 16.7083 6.41663C16.9846 6.41663 17.2496 6.30688 17.4449 6.11153C17.6403 5.91618 17.75 5.65123 17.75 5.37496C17.75 5.09869 17.6403 4.83374 17.4449 4.63839C17.2496 4.44304 16.9846 4.33329 16.7083 4.33329Z" fill="white"/>
</svg>
