<svg width="113" height="120" viewBox="0 0 113 120" fill="none" xmlns="http://www.w3.org/2000/svg">
<path opacity="0.05" d="M56.5006 115.831C87.705 115.831 113.001 90.5258 113.001 59.3105C113.001 28.0953 87.705 2.79028 56.5006 2.79028C25.2962 2.79028 0 28.0953 0 59.3105C0 90.5258 25.2962 115.831 56.5006 115.831Z" fill="#3CBDB1"/>
<path d="M67.3148 119.765H18.962C17.806 119.765 16.8676 118.895 16.8676 117.813V73.3887C16.8676 72.3107 17.806 71.4365 18.962 71.4365H75.6553C76.8113 71.4365 77.7485 72.3069 77.7485 73.3887V110.035C77.7485 115.409 73.0773 119.765 67.3148 119.765Z" fill="#60747F"/>
<path d="M65.3744 120H16.3679C15.3909 120 14.5991 119.261 14.5991 118.35V73.3215C14.5991 72.4101 15.3909 71.6715 16.3679 71.6715H73.7162C74.6932 71.6715 75.485 72.4101 75.485 73.3215V110.572C75.485 115.779 70.958 120 65.3744 120Z" fill="#6E8899"/>
<path d="M81.2711 101.463H64.1588C60.5541 101.463 57.6255 98.7361 57.6255 95.3701V95.2458C57.6255 91.8885 60.5503 89.153 64.1588 89.153H81.2711V101.463Z" fill="#2E4661"/>
<path d="M77.6895 24.8724C82.7758 19.7844 82.7758 11.5351 77.6895 6.44705C72.6033 1.35903 64.3568 1.35903 59.2706 6.44705C54.1843 11.5351 54.1843 19.7844 59.2706 24.8724C64.3568 29.9604 72.6033 29.9604 77.6895 24.8724Z" fill="#F9A140"/>
<path d="M67.2563 0.0485072C64.1697 0.290632 61.2241 1.44294 58.7921 3.35971C56.3601 5.27647 54.5509 7.87162 53.5933 10.817C52.6357 13.7623 52.5727 16.9256 53.4123 19.9067C54.2518 22.8879 55.9562 25.5531 58.31 27.5652C60.6637 29.5774 63.5611 30.8462 66.6356 31.2111C69.7102 31.576 72.8239 31.0207 75.583 29.6154C78.3421 28.2101 80.6226 26.0179 82.1362 23.3161C83.6499 20.6142 84.3286 17.524 84.0865 14.4363C83.926 12.386 83.3633 10.3875 82.4306 8.5548C81.4979 6.72211 80.2134 5.09117 78.6505 3.75512C77.0877 2.41906 75.277 1.40405 73.322 0.768068C71.3669 0.132083 69.3058 -0.112425 67.2563 0.0485072V0.0485072ZM69.4937 28.6475C66.9257 28.8489 64.3556 28.284 62.1085 27.0242C59.8614 25.7644 58.0382 23.8664 56.8694 21.5701C55.7006 19.2737 55.2388 16.6823 55.5424 14.1234C55.8459 11.5645 56.9011 9.15317 58.5746 7.19423C60.2482 5.2353 62.4648 3.81678 64.9442 3.11805C67.4236 2.41933 70.0545 2.47179 72.5041 3.26879C74.9537 4.0658 77.1121 5.57155 78.7062 7.59564C80.3004 9.61973 81.2587 12.0713 81.4601 14.6402C81.7305 18.0845 80.6223 21.4952 78.3791 24.1222C76.136 26.7492 72.9417 28.3774 69.4987 28.6487L69.4937 28.6475Z" fill="#F4D242"/>
<path d="M68.6609 9.97115C67.0865 9.98524 65.889 10.3168 65.0686 10.9659C64.252 11.6162 63.8443 12.4045 63.8518 13.3284C63.8471 13.7378 63.9322 14.1432 64.101 14.5161C64.2698 14.889 64.5182 15.2204 64.8287 15.487C65.4751 16.0615 66.5221 16.4838 67.9698 16.7541C69.4167 17.0239 70.339 17.2763 70.7305 17.5101C70.9199 17.617 71.0759 17.7744 71.1812 17.9647C71.2866 18.155 71.3371 18.3708 71.3272 18.5881C71.3363 19.6824 70.5345 20.2361 68.922 20.2494C67.2 20.2618 66.2346 19.6169 66.0258 18.3146L63.3409 18.5533C63.8149 21.0402 65.6744 22.2691 68.9195 22.2401C70.2644 22.2277 71.4544 21.9006 72.4894 21.259C73.5244 20.6174 74.0369 19.7134 74.027 18.5471C74.0195 17.5524 73.688 16.745 73.0326 16.1249C72.3775 15.5032 71.357 15.0705 69.9698 14.8143C68.5826 14.5582 67.6553 14.3319 67.1954 14.1242C66.7355 13.9166 66.5043 13.5833 66.4993 13.1195C66.4927 12.361 67.2016 11.9756 68.6261 11.9631C70.0506 11.9507 70.7964 12.3465 70.8635 13.1506L73.582 13.0263C73.4195 10.9647 71.7792 9.94628 68.6609 9.97115Z" fill="#F4D242"/>
<path d="M55.7106 68.4196C61.7342 62.3939 61.7342 52.6244 55.7106 46.5987C49.687 40.573 39.9208 40.573 33.8972 46.5987C27.8736 52.6244 27.8736 62.3939 33.8972 68.4196C39.9208 74.4453 49.687 74.4453 55.7106 68.4196Z" fill="#F9A140"/>
<path d="M34.2658 42.2519C31.2494 44.337 28.9189 47.27 27.5689 50.6801C26.2189 54.0902 25.91 57.8242 26.6814 61.4099C27.4528 64.9956 29.2698 68.2719 31.9026 70.8246C34.5354 73.3772 37.8658 75.0916 41.4726 75.7508C45.0793 76.4101 48.8006 75.9846 52.1656 74.5282C55.5307 73.0719 58.3885 70.65 60.3776 67.5689C62.3667 64.4878 63.3978 60.8858 63.3405 57.2185C63.2831 53.5511 62.14 49.9832 60.0556 46.9658C58.6717 44.9621 56.9069 43.2508 54.8618 41.9296C52.8168 40.6083 50.5316 39.703 48.1368 39.2653C45.7419 38.8275 43.2843 38.866 40.9043 39.3784C38.5243 39.8909 36.2686 40.8673 34.2658 42.2519V42.2519ZM53.5734 70.2018C51.0636 71.9372 48.0958 72.8891 45.0452 72.937C41.9946 72.985 38.9984 72.1269 36.4354 70.4712C33.8724 68.8155 31.8578 66.4367 30.6464 63.6355C29.435 60.8344 29.0813 57.7368 29.6299 54.7345C30.1785 51.7323 31.6049 48.9602 33.7286 46.7689C35.8523 44.5777 38.5779 43.0657 41.5607 42.4241C44.5435 41.7826 47.6494 42.0404 50.4858 43.1648C53.3221 44.2893 55.7614 46.23 57.495 48.7414C59.8186 52.1078 60.7107 56.2595 59.9753 60.2837C59.2399 64.3079 56.9372 67.8754 53.5734 70.2018V70.2018Z" fill="#F4D242"/>
<path d="M41.6057 51.5764C40.0023 52.5264 38.9731 53.5775 38.5181 54.7297C38.0681 55.8812 38.1191 56.9319 38.6797 57.8756C38.9183 58.2973 39.2464 58.6614 39.6409 58.9424C40.0354 59.2235 40.4868 59.4145 40.9631 59.502C41.9683 59.706 43.2941 59.5178 44.9407 58.9375C46.5827 58.3531 47.6753 58.0609 48.2172 58.0671C48.7592 58.0733 49.1768 58.3158 49.469 58.8132C50.1319 59.9273 49.6405 60.9714 47.9948 61.9454C46.2396 62.9824 44.8678 62.8966 43.8792 61.688L41.2689 63.5295C43.232 65.7926 45.8672 65.9443 49.1744 63.9846C50.5441 63.1722 51.568 62.1294 52.2458 60.8561C52.9237 59.5829 52.9112 58.3519 52.2085 57.1631C51.6077 56.1444 50.7878 55.5148 49.7486 55.2744C48.7095 55.034 47.4043 55.1948 45.8332 55.7568C44.2587 56.3238 43.1752 56.6384 42.5827 56.7006C41.9886 56.7665 41.5535 56.5588 41.2726 56.0863C40.8152 55.3146 41.3124 54.4976 42.7642 53.6355C44.216 52.7734 45.2166 52.732 45.7661 53.5112L48.4783 51.7704C47.0753 49.7585 44.7845 49.6938 41.6057 51.5764Z" fill="#F4D242"/>
<path d="M78.1222 63.3621C80.9316 62.3057 82.3531 59.1711 81.2971 56.3607C80.2411 53.5503 77.1075 52.1283 74.2981 53.1847C71.4887 54.2411 70.0672 57.3757 71.1232 60.1861C72.1792 62.9965 75.3128 64.4185 78.1222 63.3621Z" fill="#F9A140"/>
<path d="M77.2587 51.8301C75.9839 51.6224 74.6761 51.7975 73.5008 52.3333C72.3255 52.8691 71.3354 53.7415 70.6557 54.8401C69.976 55.9388 69.6372 57.2145 69.6822 58.5057C69.7272 59.797 70.1539 61.046 70.9085 62.0946C71.663 63.1433 72.7115 63.9446 73.9213 64.3972C75.131 64.8498 76.4478 64.9334 77.7051 64.6374C78.9623 64.3414 80.1036 63.6791 80.9846 62.7342C81.8656 61.7894 82.4468 60.6045 82.6546 59.3292C82.7928 58.4824 82.7628 57.6166 82.5663 56.7813C82.3699 55.9461 82.0109 55.1577 81.5098 54.4613C81.0087 53.7649 80.3754 53.1741 79.646 52.7226C78.9166 52.2711 78.1054 51.9678 77.2587 51.8301ZM75.3346 63.6427C74.2737 63.4698 73.2879 62.9861 72.5019 62.2528C71.7158 61.5195 71.1648 60.5695 70.9185 59.5229C70.6722 58.4763 70.7417 57.3801 71.1181 56.373C71.4946 55.3659 72.1611 54.4931 73.0335 53.865C73.9058 53.2368 74.9448 52.8816 76.019 52.8441C77.0932 52.8067 78.1543 53.0887 79.0683 53.6546C79.9822 54.2204 80.7079 55.0447 81.1535 56.0231C81.5992 57.0015 81.7448 58.0902 81.5719 59.1514C81.3404 60.5744 80.5534 61.8471 79.3839 62.6896C78.2144 63.532 76.7583 63.8753 75.3358 63.6439L75.3346 63.6427Z" fill="#F4D242"/>
<path d="M76.8461 55.9906C76.2071 55.8405 75.6892 55.8559 75.2923 56.0366C75.1131 56.1082 74.9536 56.2216 74.8271 56.3674C74.7006 56.5132 74.6108 56.6871 74.5651 56.8747C74.5226 57.0402 74.5169 57.2131 74.5484 57.3812C74.58 57.5492 74.6481 57.7082 74.7479 57.847C74.953 58.1442 75.337 58.419 75.8952 58.6714C76.4533 58.9238 76.8038 59.1178 76.9393 59.2521C77.0051 59.3147 77.0526 59.3942 77.0765 59.4819C77.1004 59.5695 77.0998 59.6621 77.0748 59.7495C76.9704 60.1938 76.5904 60.3385 75.9349 60.1834C75.2364 60.0176 74.909 59.6608 74.953 59.1128L73.8417 58.9375C73.787 59.9911 74.4189 60.6734 75.7373 60.9842C76.2459 61.1138 76.7806 61.0987 77.2811 60.9407C77.5029 60.8807 77.7037 60.7604 77.8612 60.5931C78.0188 60.4259 78.1269 60.2182 78.1736 59.9932C78.2237 59.8119 78.2351 59.6222 78.2071 59.4362C78.179 59.2502 78.1121 59.0723 78.0108 58.9139C77.8057 58.5968 77.4352 58.3195 76.8983 58.0783C76.5285 57.9299 76.1749 57.7441 75.8429 57.5237C75.7663 57.4737 75.7073 57.4007 75.6745 57.3152C75.6417 57.2297 75.6367 57.136 75.6602 57.0475C75.7323 56.7404 76.058 56.6533 76.636 56.7901C77.214 56.9269 77.4763 57.1631 77.4278 57.4939L78.5465 57.714C78.6824 56.8643 78.1156 56.2898 76.8461 55.9906Z" fill="#F4D242"/>
<path d="M90.1019 50.4967C93.7421 46.8553 93.7421 40.9513 90.1019 37.3099C86.4617 33.6685 80.5598 33.6685 76.9196 37.3099C73.2794 40.9513 73.2794 46.8553 76.9196 50.4967C80.5598 54.1382 86.4617 54.1382 90.1019 50.4967Z" fill="#F9A140"/>
<path d="M80.8199 33.0256C78.6691 33.5583 76.7245 34.7171 75.232 36.3553C73.7395 37.9936 72.7661 40.0378 72.435 42.2295C72.1039 44.4211 72.4299 46.6618 73.3717 48.6681C74.3136 50.6744 75.8291 52.3562 77.7264 53.501C79.6238 54.6457 81.818 55.2019 84.0313 55.0993C86.2447 54.9966 88.378 54.2396 90.1613 52.9242C91.9447 51.6087 93.298 49.7937 94.0502 47.7088C94.8024 45.6239 94.9197 43.3627 94.3873 41.2112C94.0339 39.7824 93.4026 38.4373 92.5295 37.2527C91.6564 36.0681 90.5585 35.0671 89.2986 34.307C88.0387 33.5469 86.6415 33.0425 85.1867 32.8226C83.7319 32.6028 82.2481 32.6717 80.8199 33.0256V33.0256ZM85.7522 52.9554C83.9623 53.3989 82.0812 53.3016 80.3466 52.6756C78.6121 52.0496 77.1021 50.9231 76.0077 49.4386C74.9132 47.9541 74.2834 46.1782 74.1979 44.3356C74.1124 42.493 74.5751 40.6664 75.5274 39.0869C76.4797 37.5073 77.8789 36.2458 79.5481 35.4618C81.2172 34.6778 83.0812 34.4066 84.9044 34.6824C86.7277 34.9582 88.4282 35.7687 89.7909 37.0114C91.1536 38.2541 92.1173 39.8731 92.5601 41.6638C93.1537 44.0642 92.77 46.6022 91.4933 48.7197C90.2167 50.8372 88.1516 52.3607 85.7522 52.9554V52.9554Z" fill="#F4D242"/>
<path d="M82.9765 39.867C81.8661 40.0602 81.0594 40.4332 80.5564 40.9861C80.0534 41.539 79.8595 42.1433 79.9747 42.799C80.0194 43.0886 80.127 43.3648 80.2901 43.6082C80.4531 43.8516 80.6675 44.0563 80.9181 44.2078C81.4414 44.5373 82.232 44.7127 83.2798 44.735C84.3277 44.7574 85.0138 44.8258 85.3171 44.9452C85.4633 44.9983 85.5919 45.0909 85.6887 45.2127C85.7855 45.3346 85.8466 45.4808 85.8653 45.6353C85.9995 46.4079 85.4982 46.8928 84.3612 47.0901C83.1481 47.3015 82.3911 46.9591 82.0903 46.063L80.2258 46.5467C80.8489 48.2461 82.3045 48.8947 84.5924 48.4927C85.4822 48.354 86.3154 47.969 86.9976 47.3811C87.6523 46.8066 87.9084 46.1082 87.7658 45.2859C87.644 44.5838 87.3154 44.0528 86.7801 43.693C86.2448 43.3333 85.4741 43.1464 84.4681 43.1323C83.458 43.1165 82.7785 43.0622 82.4296 42.9694C82.2747 42.9424 82.1323 42.8672 82.0227 42.7544C81.9131 42.6416 81.8419 42.4971 81.8193 42.3414C81.7273 41.8068 82.1831 41.4516 83.1866 41.2758C84.1901 41.1001 84.764 41.292 84.9082 41.8515L86.8124 41.4499C86.4528 40.0108 85.1742 39.4832 82.9765 39.867Z" fill="#F4D242"/>
</svg>
